<mxfile host="app.diagrams.net">
  <diagram name="Login Page" id="login-page">
    <mxGraphModel dx="1000" dy="1000" grid="1" gridSize="10" page="1" pageScale="1" pageWidth="800" pageHeight="600">
      <root>
        <mxCell id="0" />
        <mxCell id="1" parent="0" />
        <mxCell id="2" value="User enters credentials" style="rounded=1;whiteSpace=wrap;html=1;fillColor=#dae8fc;strokeColor=#6c8ebf;" vertex="1" parent="1"><mxGeometry x="40" y="40" width="180" height="60" as="geometry" /></mxCell>
        <mxCell id="3" value="Check role (installateur, opérateur, etc)" style="rounded=1;whiteSpace=wrap;html=1;fillColor=#d5e8d4;strokeColor=#82b366;" vertex="1" parent="1"><mxGeometry x="260" y="40" width="220" height="60" as="geometry" /></mxCell>
        <mxCell id="4" value="Redirect to Dashboard" style="rounded=1;whiteSpace=wrap;html=1;fillColor=#fff2cc;strokeColor=#d6b656;" vertex="1" parent="1"><mxGeometry x="520" y="40" width="180" height="60" as="geometry" /></mxCell>
        <mxCell id="5" style="edgeStyle=orthogonalEdgeStyle;rounded=1;html=1;endArrow=block;endFill=1;strokeColor=#6c8ebf;" edge="1" parent="1" source="2" target="3"><mxGeometry relative="1" as="geometry" /></mxCell>
        <mxCell id="6" style="edgeStyle=orthogonalEdgeStyle;rounded=1;html=1;endArrow=block;endFill=1;strokeColor=#82b366;" edge="1" parent="1" source="3" target="4"><mxGeometry relative="1" as="geometry" /></mxCell>
      </root>
    </mxGraphModel>
  </diagram>
  <diagram name="Dashboard" id="dashboard">
    <mxGraphModel dx="1000" dy="1000" grid="1" gridSize="10" page="1" pageScale="1" pageWidth="1000" pageHeight="800">
      <root>
        <mxCell id="0" />
        <mxCell id="1" parent="0" />
        <mxCell id="2" value="Display user role & quick actions" style="rounded=1;whiteSpace=wrap;html=1;fillColor=#d5e8d4;strokeColor=#82b366;" vertex="1" parent="1"><mxGeometry x="40" y="40" width="220" height="60" as="geometry" /></mxCell>
        <mxCell id="3" value="Navigation: Box, Installateurs, Statuts, Tokens" style="rounded=1;whiteSpace=wrap;html=1;fillColor=#fff2cc;strokeColor=#d6b656;" vertex="1" parent="1"><mxGeometry x="320" y="40" width="320" height="60" as="geometry" /></mxCell>
        <mxCell id="4" style="edgeStyle=orthogonalEdgeStyle;rounded=1;html=1;endArrow=block;endFill=1;strokeColor=#82b366;" edge="1" parent="1" source="2" target="3"><mxGeometry relative="1" as="geometry" /></mxCell>
      </root>
    </mxGraphModel>
  </diagram>
  <diagram name="Gestion des Box" id="box-management">
    <mxGraphModel dx="1000" dy="1000" grid="1" gridSize="10" page="1" pageScale="1" pageWidth="1200" pageHeight="1000">
      <root>
        <mxCell id="0" />
        <mxCell id="1" parent="0" />
        <mxCell id="2" value="Saisie du numéro de série" style="rounded=1;whiteSpace=wrap;html=1;fillColor=#dae8fc;strokeColor=#6c8ebf;" vertex="1" parent="1"><mxGeometry x="40" y="40" width="180" height="60" as="geometry" /></mxCell>
        <mxCell id="3" value="Appel /router-status" style="rounded=1;whiteSpace=wrap;html=1;fillColor=#d5e8d4;strokeColor=#82b366;" vertex="1" parent="1"><mxGeometry x="260" y="40" width="180" height="60" as="geometry" /></mxCell>
        <mxCell id="4" value="Affichage statut, IP, etc" style="rounded=1;whiteSpace=wrap;html=1;fillColor=#fff2cc;strokeColor=#d6b656;" vertex="1" parent="1"><mxGeometry x="480" y="40" width="220" height="60" as="geometry" /></mxCell>
        <mxCell id="5" value="Actions: force-status, activate-device, reset-device-status" style="rounded=1;whiteSpace=wrap;html=1;fillColor=#f8cecc;strokeColor=#b85450;" vertex="1" parent="1"><mxGeometry x="40" y="160" width="400" height="60" as="geometry" /></mxCell>
        <mxCell id="6" value="Historique des statuts" style="rounded=1;whiteSpace=wrap;html=1;fillColor=#e1d5e7;strokeColor=#9673a6;" vertex="1" parent="1"><mxGeometry x="480" y="160" width="220" height="60" as="geometry" /></mxCell>
        <mxCell id="7" style="edgeStyle=orthogonalEdgeStyle;rounded=1;html=1;endArrow=block;endFill=1;strokeColor=#6c8ebf;" edge="1" parent="1" source="2" target="3"><mxGeometry relative="1" as="geometry" /></mxCell>
        <mxCell id="8" style="edgeStyle=orthogonalEdgeStyle;rounded=1;html=1;endArrow=block;endFill=1;strokeColor=#82b366;" edge="1" parent="1" source="3" target="4"><mxGeometry relative="1" as="geometry" /></mxCell>
        <mxCell id="9" style="edgeStyle=orthogonalEdgeStyle;rounded=1;html=1;endArrow=block;endFill=1;strokeColor=#d6b656;" edge="1" parent="1" source="4" target="6"><mxGeometry relative="1" as="geometry" /></mxCell>
        <mxCell id="10" style="edgeStyle=orthogonalEdgeStyle;rounded=1;html=1;endArrow=block;endFill=1;strokeColor=#b85450;" edge="1" parent="1" source="4" target="5"><mxGeometry relative="1" as="geometry" /></mxCell>
      </root>
    </mxGraphModel>
  </diagram>
  <diagram name="Gestion des Installateurs" id="installateurs">
    <mxGraphModel dx="1000" dy="1000" grid="1" gridSize="10" page="1" pageScale="1" pageWidth="1000" pageHeight="800">
      <root>
        <mxCell id="0" />
        <mxCell id="1" parent="0" />
        <mxCell id="2" value="Liste installateurs" style="rounded=1;whiteSpace=wrap;html=1;fillColor=#e1d5e7;strokeColor=#9673a6;" vertex="1" parent="1"><mxGeometry x="40" y="40" width="180" height="60" as="geometry" /></mxCell>
        <mxCell id="3" value="Ajout/Suppression/Modification" style="rounded=1;whiteSpace=wrap;html=1;fillColor=#fff2cc;strokeColor=#d6b656;" vertex="1" parent="1"><mxGeometry x="260" y="40" width="220" height="60" as="geometry" /></mxCell>
        <mxCell id="4" value="Attribution box à installateur" style="rounded=1;whiteSpace=wrap;html=1;fillColor=#f8cecc;strokeColor=#b85450;" vertex="1" parent="1"><mxGeometry x="520" y="40" width="220" height="60" as="geometry" /></mxCell>
        <mxCell id="5" value="Suivi interventions" style="rounded=1;whiteSpace=wrap;html=1;fillColor=#d5e8d4;strokeColor=#82b366;" vertex="1" parent="1"><mxGeometry x="40" y="160" width="220" height="60" as="geometry" /></mxCell>
        <mxCell id="6" value="Statut installation" style="rounded=1;whiteSpace=wrap;html=1;fillColor=#dae8fc;strokeColor=#6c8ebf;" vertex="1" parent="1"><mxGeometry x="320" y="160" width="220" height="60" as="geometry" /></mxCell>
        <mxCell id="7" style="edgeStyle=orthogonalEdgeStyle;rounded=1;html=1;endArrow=block;endFill=1;strokeColor=#9673a6;" edge="1" parent="1" source="2" target="3"><mxGeometry relative="1" as="geometry" /></mxCell>
        <mxCell id="8" style="edgeStyle=orthogonalEdgeStyle;rounded=1;html=1;endArrow=block;endFill=1;strokeColor=#d6b656;" edge="1" parent="1" source="3" target="4"><mxGeometry relative="1" as="geometry" /></mxCell>
        <mxCell id="9" style="edgeStyle=orthogonalEdgeStyle;rounded=1;html=1;endArrow=block;endFill=1;strokeColor=#b85450;" edge="1" parent="1" source="4" target="5"><mxGeometry relative="1" as="geometry" /></mxCell>
        <mxCell id="10" style="edgeStyle=orthogonalEdgeStyle;rounded=1;html=1;endArrow=block;endFill=1;strokeColor=#82b366;" edge="1" parent="1" source="5" target="6"><mxGeometry relative="1" as="geometry" /></mxCell>
      </root>
    </mxGraphModel>
  </diagram>
  <diagram name="Gestion des Statuts" id="statuts">
    <mxGraphModel dx="1000" dy="1000" grid="1" gridSize="10" page="1" pageScale="1" pageWidth="1000" pageHeight="800">
      <root>
        <mxCell id="0" />
        <mxCell id="1" parent="0" />
        <mxCell id="2" value="Changement de statut logique" style="rounded=1;whiteSpace=wrap;html=1;fillColor=#f8cecc;strokeColor=#b85450;" vertex="1" parent="1"><mxGeometry x="40" y="40" width="220" height="60" as="geometry" /></mxCell>
        <mxCell id="3" value="Historique des changements" style="rounded=1;whiteSpace=wrap;html=1;fillColor=#e1d5e7;strokeColor=#9673a6;" vertex="1" parent="1"><mxGeometry x="320" y="40" width="220" height="60" as="geometry" /></mxCell>
        <mxCell id="4" value="Actions groupées" style="rounded=1;whiteSpace=wrap;html=1;fillColor=#fff2cc;strokeColor=#d6b656;" vertex="1" parent="1"><mxGeometry x="40" y="160" width="220" height="60" as="geometry" /></mxCell>
        <mxCell id="5" value="Statuts possibles: active, to be deployed, en panne, maintenance" style="rounded=1;whiteSpace=wrap;html=1;fillColor=#d5e8d4;strokeColor=#82b366;" vertex="1" parent="1"><mxGeometry x="320" y="160" width="320" height="60" as="geometry" /></mxCell>
        <mxCell id="6" style="edgeStyle=orthogonalEdgeStyle;rounded=1;html=1;endArrow=block;endFill=1;strokeColor=#b85450;" edge="1" parent="1" source="2" target="3"><mxGeometry relative="1" as="geometry" /></mxCell>
        <mxCell id="7" style="edgeStyle=orthogonalEdgeStyle;rounded=1;html=1;endArrow=block;endFill=1;strokeColor=#9673a6;" edge="1" parent="1" source="3" target="4"><mxGeometry relative="1" as="geometry" /></mxCell>
        <mxCell id="8" style="edgeStyle=orthogonalEdgeStyle;rounded=1;html=1;endArrow=block;endFill=1;strokeColor=#d6b656;" edge="1" parent="1" source="4" target="5"><mxGeometry relative="1" as="geometry" /></mxCell>
      </root>
    </mxGraphModel>
  </diagram>
  <diagram name="Token Management" id="token-management">
    <mxGraphModel dx="1000" dy="1000" grid="1" gridSize="10" page="1" pageScale="1" pageWidth="800" pageHeight="600">
      <root>
        <mxCell id="0" />
        <mxCell id="1" parent="0" />
        <mxCell id="2" value="Affichage token, refresh token, expiry" style="rounded=1;whiteSpace=wrap;html=1;fillColor=#d5e8d4;strokeColor=#82b366;" vertex="1" parent="1"><mxGeometry x="40" y="40" width="220" height="60" as="geometry" /></mxCell>
        <mxCell id="3" value="Refresh manuel/auto" style="rounded=1;whiteSpace=wrap;html=1;fillColor=#fff2cc;strokeColor=#d6b656;" vertex="1" parent="1"><mxGeometry x="320" y="40" width="180" height="60" as="geometry" /></mxCell>
        <mxCell id="4" value="Historique des tokens" style="rounded=1;whiteSpace=wrap;html=1;fillColor=#f8cecc;strokeColor=#b85450;" vertex="1" parent="1"><mxGeometry x="40" y="160" width="220" height="60" as="geometry" /></mxCell>
        <mxCell id="5" style="edgeStyle=orthogonalEdgeStyle;rounded=1;html=1;endArrow=block;endFill=1;strokeColor=#d5e8d4;" edge="1" parent="1" source="2" target="3"><mxGeometry relative="1" as="geometry" /></mxCell>
        <mxCell id="6" style="edgeStyle=orthogonalEdgeStyle;rounded=1;html=1;endArrow=block;endFill=1;strokeColor=#fff2cc;" edge="1" parent="1" source="3" target="4"><mxGeometry relative="1" as="geometry" /></mxCell>
      </root>
    </mxGraphModel>
  </diagram>
  <diagram name="Support Agent" id="support-agent">
    <mxGraphModel dx="1000" dy="1000" grid="1" gridSize="10" page="1" pageScale="1" pageWidth="1000" pageHeight="800">
      <root>
        <mxCell id="0" />
        <mxCell id="1" parent="0" />
        <mxCell id="2" value="Sélection endpoint Peplink" style="rounded=1;whiteSpace=wrap;html=1;fillColor=#e1d5e7;strokeColor=#9673a6;" vertex="1" parent="1"><mxGeometry x="40" y="40" width="220" height="60" as="geometry" /></mxCell>
        <mxCell id="3" value="Appel API sur box" style="rounded=1;whiteSpace=wrap;html=1;fillColor=#d5e8d4;strokeColor=#82b366;" vertex="1" parent="1"><mxGeometry x="320" y="40" width="220" height="60" as="geometry" /></mxCell>
        <mxCell id="4" value="Affichage réponse/erreur" style="rounded=1;whiteSpace=wrap;html=1;fillColor=#fff2cc;strokeColor=#d6b656;" vertex="1" parent="1"><mxGeometry x="40" y="160" width="220" height="60" as="geometry" /></mxCell>
        <mxCell id="5" value="Gestion auto refresh token sur access denied" style="rounded=1;whiteSpace=wrap;html=1;fillColor=#f8cecc;strokeColor=#b85450;" vertex="1" parent="1"><mxGeometry x="320" y="160" width="320" height="60" as="geometry" /></mxCell>
        <mxCell id="6" style="edgeStyle=orthogonalEdgeStyle;rounded=1;html=1;endArrow=block;endFill=1;strokeColor=#9673a6;" edge="1" parent="1" source="2" target="3"><mxGeometry relative="1" as="geometry" /></mxCell>
        <mxCell id="7" style="edgeStyle=orthogonalEdgeStyle;rounded=1;html=1;endArrow=block;endFill=1;strokeColor=#d5e8d4;" edge="1" parent="1" source="3" target="4"><mxGeometry relative="1" as="geometry" /></mxCell>
        <mxCell id="8" style="edgeStyle=orthogonalEdgeStyle;rounded=1;html=1;endArrow=block;endFill=1;strokeColor=#fff2cc;" edge="1" parent="1" source="4" target="5"><mxGeometry relative="1" as="geometry" /></mxCell>
      </root>
    </mxGraphModel>
  </diagram>
  <diagram name="Admin Panel" id="admin-panel">
    <mxGraphModel dx="1000" dy="1000" grid="1" gridSize="10" page="1" pageScale="1" pageWidth="800" pageHeight="600">
      <root>
        <mxCell id="0" />
        <mxCell id="1" parent="0" />
        <mxCell id="2" value="Gestion .env" style="rounded=1;whiteSpace=wrap;html=1;fillColor=#f5f5f5;strokeColor=#666666;" vertex="1" parent="1"><mxGeometry x="40" y="40" width="220" height="60" as="geometry" /></mxCell>
        <mxCell id="3" value="Automatisation mise à jour" style="rounded=1;whiteSpace=wrap;html=1;fillColor=#d5e8d4;strokeColor=#82b366;" vertex="1" parent="1"><mxGeometry x="320" y="40" width="220" height="60" as="geometry" /></mxCell>
        <mxCell id="4" value="Logs et erreurs" style="rounded=1;whiteSpace=wrap;html=1;fillColor=#f8cecc;strokeColor=#b85450;" vertex="1" parent="1"><mxGeometry x="40" y="160" width="220" height="60" as="geometry" /></mxCell>
        <mxCell id="5" style="edgeStyle=orthogonalEdgeStyle;rounded=1;html=1;endArrow=block;endFill=1;strokeColor=#f5f5f5;" edge="1" parent="1" source="2" target="3"><mxGeometry relative="1" as="geometry" /></mxCell>
        <mxCell id="6" style="edgeStyle=orthogonalEdgeStyle;rounded=1;html=1;endArrow=block;endFill=1;strokeColor=#d5e8d4;" edge="1" parent="1" source="3" target="4"><mxGeometry relative="1" as="geometry" /></mxCell>
      </root>
    </mxGraphModel>
  </diagram>
</mxfile>
